<svg xmlns="http://www.w3.org/2000/svg" xmlns:xlink="http://www.w3.org/1999/xlink" width="59.058" height="60" viewBox="0 0 59.058 60"><defs><style>.a,.b,.c{fill-rule:evenodd;}.a{fill:url(#a);}.b{fill:#ff5959;}.c{fill:#facf5a;}</style><linearGradient id="a" y1="0.5" x2="1" y2="0.5" gradientUnits="objectBoundingBox"><stop offset="0" stop-color="#4f9da6"/><stop offset="1" stop-color="#233142"/></linearGradient></defs><path class="a" d="M10590.823,1506.731h-15.54c-4.262,0-4.262,0-7.283-3.023l-27.031-27.046c-2.969-2.969-2.969-2.969-2.969-7.234V1453.88c0-4.265,0-4.265,2.969-1.242l51.1,51.07C10595.032,1506.731,10595.032,1506.731,10590.823,1506.731Z" transform="translate(-10538 -1446.731)"/><path class="b" d="M10540.864,2009.562c-2.864-2.916-2.864-2.916-2.864,1.2v17.858c0,4.113,0,4.113,2.864,1.2l7.236-7.237c2.916-2.916,2.916-2.916,0-5.779Z" transform="translate(-10538 -1972.731)"/><path class="c" d="M10867.061,1380.916l-7.236,7.237c-2.916,2.916-2.916,2.916-.156,5.935l8.851,8.591c2.916,2.864,2.864,2.864,5.78,0l21.71-21.763c2.916-2.916,2.916-2.916-1.2-2.916h-20.775C10869.925,1378,10869.925,1378,10867.061,1380.916Z" transform="translate(-10839.008 -1378)"/></svg>